<svg _ngcontent-ng-c59164414="" xmlns="http://www.w3.org/2000/svg" width="150" height="46" viewBox="0 0 288 46" fill="white"><path _ngcontent-ng-c59164414="" d="M5.72751 45.9743H1.22661C1.06146 45.9978 0.89311 45.9826 0.73487 45.9298C0.576629 45.877 0.432846 45.7881 0.314891 45.6701C0.196936 45.5521 0.108045 45.4083 0.0552543 45.25C0.0024641 45.0918 -0.012779 44.9234 0.0107306 44.7582V1.23582C-0.012779 1.07065 0.0024641 0.902266 0.0552543 0.744002C0.108045 0.585737 0.196936 0.441929 0.314891 0.323956C0.432846 0.205983 0.576629 0.117082 0.73487 0.0642833C0.89311 0.0114851 1.06146 -0.00376032 1.22661 0.0197529H5.72751C5.89266 -0.00376032 6.06102 0.0114851 6.21926 0.0642833C6.3775 0.117082 6.52128 0.205983 6.63924 0.323956C6.75719 0.441929 6.84608 0.585737 6.89887 0.744002C6.95166 0.902266 6.96691 1.07065 6.9434 1.23582V19.0971C6.9434 19.575 7.22781 19.8139 7.79665 19.8139H22.8779C22.975 19.8275 23.0739 19.8184 23.1669 19.7871C23.2599 19.7558 23.3442 19.7033 23.4134 19.6337C23.4825 19.5642 23.5345 19.4795 23.5652 19.3863C23.5959 19.2932 23.6045 19.1941 23.5903 19.0971V1.22729C23.5668 1.06211 23.5821 0.893734 23.6349 0.73547C23.6876 0.577205 23.7765 0.433397 23.8945 0.315424C24.0124 0.19745 24.1562 0.108549 24.3145 0.055751C24.4727 0.00295276 24.6411 -0.0122927 24.8062 0.0112205H29.3796C29.5448 -0.0122927 29.7131 0.00295276 29.8714 0.055751C30.0296 0.108549 30.1734 0.19745 30.2914 0.315424C30.4093 0.433397 30.4982 0.577205 30.551 0.73547C30.6038 0.893734 30.619 1.06211 30.5955 1.22729V44.7497C30.619 44.9149 30.6038 45.0832 30.551 45.2415C30.4982 45.3998 30.4093 45.5436 30.2914 45.6616C30.1734 45.7795 30.0296 45.8684 29.8714 45.9212C29.7131 45.974 29.5448 45.9893 29.3796 45.9658H24.8105C24.6453 45.9893 24.477 45.974 24.3187 45.9212C24.1605 45.8684 24.0167 45.7795 23.8988 45.6616C23.7808 45.5436 23.6919 45.3998 23.6391 45.2415C23.5863 45.0832 23.5711 44.9149 23.5946 44.7497V26.6751C23.6088 26.578 23.6002 26.479 23.5695 26.3859C23.5388 26.2927 23.4868 26.208 23.4176 26.1384C23.3485 26.0689 23.2641 26.0164 23.1712 25.9851C23.0782 25.9538 22.9793 25.9446 22.8821 25.9583H7.80091C7.23208 25.9583 6.94766 26.1972 6.94766 26.6751V44.7582C6.97133 44.9238 6.95605 45.0926 6.90303 45.2513C6.85002 45.4099 6.76073 45.554 6.64226 45.6721C6.5238 45.7901 6.37943 45.8789 6.22063 45.9314C6.06183 45.9839 5.89299 45.9985 5.72751 45.9743Z"></path><path _ngcontent-ng-c59164414="" d="M48.9104 1.22743V44.7498C48.9339 44.915 48.9186 45.0834 48.8659 45.2416C48.8131 45.3999 48.7242 45.5437 48.6062 45.6617C48.4883 45.7797 48.3445 45.8686 48.1862 45.9214C48.028 45.9742 47.8596 45.9894 47.6945 45.9659H43.1893C43.0243 45.9896 42.8561 45.9744 42.698 45.9216C42.5399 45.8688 42.3963 45.7798 42.2786 45.6618C42.161 45.5437 42.0725 45.3997 42.0203 45.2414C41.968 45.0831 41.9535 44.9148 41.9777 44.7498V1.22743C41.9535 1.06249 41.968 0.894165 42.0203 0.735849C42.0725 0.577532 42.161 0.433598 42.2786 0.315506C42.3963 0.197415 42.5399 0.108424 42.698 0.0556222C42.8561 0.00282032 43.0243 -0.0123335 43.1893 0.0113619H47.6902C47.8557 -0.012889 48.0246 0.00180228 48.1834 0.0542712C48.3421 0.10674 48.4865 0.195538 48.605 0.313605C48.7234 0.431672 48.8127 0.575753 48.8658 0.73439C48.9188 0.893028 48.9341 1.06185 48.9104 1.22743Z"></path><path _ngcontent-ng-c59164414="" d="M78.5698 45.9745H70.9204C67.3965 45.9745 64.6689 44.9974 62.7377 43.0432C60.8066 41.0889 59.8424 38.3738 59.8452 34.8977V11.0926C59.8452 7.56815 60.8094 4.84019 62.7377 2.9087C64.6661 0.977217 67.3937 0.0114746 70.9204 0.0114746H78.5698C82.0937 0.0114746 84.8213 0.977217 86.7525 2.9087C88.6837 4.84019 89.6479 7.56815 89.645 11.0926V13.6528C89.645 14.5061 89.2397 14.9328 88.4291 14.9328H83.9282C83.1176 14.9328 82.7123 14.5061 82.7123 13.6528V11.3742C82.7123 7.84977 80.9973 6.08612 77.5672 6.08327H71.923C68.4929 6.08327 66.7779 7.84693 66.7779 11.3742V34.6075C66.7779 38.132 68.4929 39.8942 71.923 39.8942H77.5544C80.9845 39.8942 82.6995 38.132 82.6995 34.6075V28.1773C82.6995 27.6994 82.4393 27.4605 81.9146 27.4605H76.138C75.9729 27.484 75.8046 27.4687 75.6463 27.4159C75.4881 27.3631 75.3443 27.2742 75.2263 27.1562C75.1084 27.0383 75.0195 26.8945 74.9667 26.7362C74.9139 26.5779 74.8987 26.4096 74.9222 26.2444V22.6004C74.8987 22.4353 74.9139 22.2669 74.9667 22.1086C75.0195 21.9504 75.1084 21.8066 75.2263 21.6886C75.3443 21.5706 75.4881 21.4817 75.6463 21.4289C75.8046 21.3761 75.9729 21.3609 76.138 21.3844H88.1433C89.1459 21.3844 89.645 21.8879 89.645 22.8863V34.8977C89.645 38.3766 88.668 41.0918 86.7141 43.0432C84.7602 44.9946 82.0454 45.9717 78.5698 45.9745Z"></path><path _ngcontent-ng-c59164414="" d="M106.014 45.9744H101.509C101.344 45.9979 101.175 45.9827 101.017 45.9299C100.859 45.8771 100.715 45.7882 100.597 45.6702C100.479 45.5522 100.39 45.4084 100.337 45.2502C100.285 45.0919 100.269 44.9235 100.293 44.7584V1.23596C100.269 1.07079 100.285 0.902408 100.337 0.744143C100.39 0.585879 100.479 0.44207 100.597 0.324097C100.715 0.206124 100.859 0.117223 101.017 0.0644249C101.175 0.0116267 101.344 -0.00361876 101.509 0.0198944H106.014C106.179 -0.00288528 106.347 0.0129109 106.504 0.0660363C106.662 0.119162 106.805 0.208167 106.923 0.326047C107.04 0.443928 107.129 0.587463 107.181 0.745358C107.234 0.903252 107.249 1.07119 107.226 1.23596V19.0972C107.226 19.5751 107.51 19.8141 108.079 19.8141H123.16C123.258 19.8284 123.357 19.8198 123.451 19.7888C123.544 19.7579 123.629 19.7055 123.699 19.6358C123.768 19.5662 123.821 19.4812 123.852 19.3877C123.883 19.2941 123.891 19.1947 123.877 19.0972V1.22743C123.853 1.06249 123.867 0.894165 123.919 0.735849C123.972 0.577532 124.06 0.433598 124.178 0.315506C124.295 0.197415 124.439 0.108424 124.597 0.0556223C124.755 0.00282046 124.923 -0.0123334 125.088 0.0113621H129.666C129.831 -0.0121511 130 0.00309431 130.158 0.0558925C130.316 0.108691 130.46 0.197592 130.578 0.315565C130.696 0.433538 130.785 0.577346 130.837 0.735611C130.89 0.893875 130.906 1.06225 130.882 1.22743V44.7498C130.905 44.9146 130.89 45.0825 130.838 45.2404C130.785 45.3983 130.697 45.5419 130.579 45.6597C130.462 45.7776 130.318 45.8666 130.161 45.9198C130.003 45.9729 129.835 45.9887 129.67 45.9659H125.093C124.928 45.9896 124.759 45.9744 124.601 45.9216C124.443 45.8688 124.3 45.7798 124.182 45.6617C124.064 45.5437 123.976 45.3997 123.924 45.2414C123.871 45.0831 123.857 44.9148 123.881 44.7498V26.6752C123.895 26.5778 123.887 26.4783 123.856 26.3848C123.825 26.2913 123.773 26.2063 123.703 26.1366C123.633 26.0669 123.548 26.0145 123.455 25.9836C123.361 25.9527 123.262 25.944 123.164 25.9584H108.083C107.514 25.9584 107.23 26.1973 107.23 26.6752V44.7584C107.253 44.9235 107.238 45.0919 107.185 45.2502C107.133 45.4084 107.044 45.5522 106.926 45.6702C106.808 45.7882 106.664 45.8771 106.506 45.9299C106.348 45.9827 106.179 45.9979 106.014 45.9744Z"></path><path _ngcontent-ng-c59164414="" d="M156.399 45.9744H148.822C148.643 45.9945 148.462 45.9789 148.29 45.9284C148.117 45.878 147.956 45.7937 147.817 45.6806C147.677 45.5674 147.561 45.4276 147.476 45.2693C147.391 45.111 147.338 44.9373 147.32 44.7584L138.817 1.23594C138.718 0.425231 139.122 0.0198761 140.029 0.0198761H145.533C146.437 0.0198761 146.913 0.425231 146.962 1.23594L152.751 38.6823H153.178L161.599 1.0866C161.607 0.929819 161.647 0.776298 161.716 0.635665C161.786 0.495033 161.884 0.370326 162.004 0.269366C162.125 0.168406 162.264 0.0933706 162.415 0.0489695C162.565 0.00456849 162.723 -0.00824034 162.879 0.0113438H168.882C169.204 -0.0236531 169.528 0.0694294 169.782 0.270544C170.037 0.471659 170.202 0.764715 170.243 1.0866L178.767 38.6823H179.193L184.983 1.29995C185.03 0.446566 185.503 0.0198761 186.412 0.0198761H191.915C192.865 0.0198761 193.269 0.446566 193.127 1.29995L184.637 44.7584C184.625 44.9327 184.578 45.1028 184.499 45.2587C184.42 45.4147 184.311 45.5533 184.178 45.6665C184.045 45.7798 183.89 45.8653 183.724 45.9182C183.557 45.9711 183.382 45.9902 183.208 45.9744H175.622C175.448 45.9902 175.273 45.9711 175.107 45.9182C174.94 45.8653 174.786 45.7798 174.653 45.6665C174.519 45.5533 174.41 45.4147 174.331 45.2587C174.253 45.1028 174.206 44.9327 174.193 44.7584L166.117 8.59208H165.831L157.76 44.7584C157.752 44.928 157.71 45.0944 157.637 45.2478C157.564 45.4011 157.461 45.5384 157.334 45.6516C157.207 45.7648 157.059 45.8516 156.899 45.907C156.738 45.9625 156.568 45.9854 156.399 45.9744Z"></path><path _ngcontent-ng-c59164414="" d="M209.522 1.22743V44.7498C209.546 44.915 209.53 45.0834 209.478 45.2416C209.425 45.3999 209.336 45.5437 209.218 45.6617C209.1 45.7797 208.956 45.8686 208.798 45.9214C208.64 45.9742 208.471 45.9894 208.306 45.9659H203.801C203.636 45.9896 203.468 45.9744 203.31 45.9216C203.152 45.8688 203.008 45.7798 202.89 45.6618C202.773 45.5437 202.684 45.3997 202.632 45.2414C202.58 45.0831 202.565 44.9148 202.59 44.7498V1.22743C202.565 1.06249 202.58 0.894165 202.632 0.735849C202.684 0.577532 202.773 0.433598 202.89 0.315506C203.008 0.197415 203.152 0.108424 203.31 0.0556223C203.468 0.00282046 203.636 -0.0123334 203.801 0.0113621H208.306C208.471 -0.0121511 208.64 0.00309431 208.798 0.0558925C208.956 0.108691 209.1 0.197592 209.218 0.315565C209.336 0.433538 209.425 0.577346 209.478 0.735611C209.53 0.893876 209.546 1.06225 209.522 1.22743Z"></path><path _ngcontent-ng-c59164414="" d="M228.029 45.9743H223.528C223.363 45.9978 223.195 45.9826 223.037 45.9298C222.878 45.877 222.735 45.7881 222.617 45.6701C222.499 45.5521 222.41 45.4083 222.357 45.2501C222.304 45.0918 222.289 44.9234 222.312 44.7582V1.23583C222.289 1.07066 222.304 0.902279 222.357 0.744014C222.41 0.58575 222.499 0.441942 222.617 0.323968C222.735 0.205995 222.878 0.117094 223.037 0.0642959C223.195 0.0114977 223.363 -0.00374777 223.528 0.0197654H240.252C243.731 0.0197654 246.458 1.01538 248.435 3.0066C250.411 4.99782 251.407 7.72579 251.421 11.1905V17.194C251.421 22.6728 249.159 26.1275 244.634 27.5584V27.8442L252.565 44.5705C253.089 45.5263 252.778 45.9999 251.634 45.9999H247.185C246.041 45.9999 245.299 45.5732 244.966 44.7838L237.321 28.3435H230.103C229.534 28.3435 229.249 28.5824 229.249 29.0603V44.7838C229.269 44.9475 229.25 45.1133 229.195 45.2686C229.14 45.4239 229.05 45.5646 228.932 45.6796C228.815 45.7946 228.672 45.8811 228.515 45.9321C228.359 45.9832 228.192 45.9977 228.029 45.9743ZM230.03 22.6002H239.109C242.633 22.6002 244.395 20.8607 244.395 17.3818V11.374C244.395 7.84953 242.633 6.08588 239.109 6.08303H230.03C229.505 6.08303 229.245 6.32198 229.245 6.79987V21.8834C229.245 22.3613 229.505 22.6002 230.03 22.6002Z"></path><path _ngcontent-ng-c59164414="" d="M286.848 45.9745H263.99C263.824 45.998 263.656 45.9827 263.498 45.9299C263.34 45.8771 263.196 45.7882 263.078 45.6703C262.96 45.5523 262.871 45.4085 262.818 45.2502C262.765 45.092 262.75 44.9236 262.774 44.7584V1.236C262.749 1.07018 262.763 0.900818 262.815 0.741437C262.867 0.582056 262.956 0.437077 263.074 0.318087C263.192 0.199097 263.336 0.109393 263.495 0.056142C263.654 0.00289122 263.824 -0.0124294 263.99 0.0114032H286.857C287.62 0.0114032 288 0.416758 288 1.22747V4.87567C288 5.68638 287.62 6.08747 286.857 6.08747H270.555C269.987 6.08747 269.702 6.32642 269.702 6.80431V18.8839C269.702 19.3618 269.988 19.5965 270.555 19.5965H284.348C285.201 19.5965 285.628 20.0232 285.628 20.8125V24.4607C285.628 25.2715 285.201 25.6725 284.348 25.6725H270.555C269.987 25.6725 269.702 25.9115 269.702 26.3894V39.109C269.702 39.6339 269.988 39.8941 270.555 39.8941H286.848C287.612 39.8941 287.992 40.3208 287.992 41.1102V44.7541C287.992 45.5691 287.612 45.9745 286.848 45.9745Z"></path></svg>